<?xml version="1.0" standalone="no"?>
<!DOCTYPE svg PUBLIC "-//W3C//DTD SVG 20010904//EN"
 "http://www.w3.org/TR/2001/REC-SVG-20010904/DTD/svg10.dtd">
<svg version="1.0" xmlns="http://www.w3.org/2000/svg"
 width="300.000000pt" height="300.000000pt" viewBox="0 0 300.000000 300.000000"
 preserveAspectRatio="xMidYMid meet">
<metadata>
Created by potrace 1.10, written by Peter Selinger 2001-2011
</metadata>
<g transform="translate(0.000000,300.000000) scale(0.100000,-0.100000)"
fill="#000000" stroke="none">
<path d="M1370 2867 c-3 -3 -28 -7 -55 -8 -28 -1 -78 -10 -112 -20 -35 -10
-63 -16 -63 -14 0 11 -186 -63 -270 -107 -97 -50 -142 -78 -195 -122 -124
-100 -161 -135 -212 -199 -32 -39 -61 -74 -64 -77 -16 -12 -79 -113 -121 -195
-43 -86 -95 -221 -105 -275 -2 -14 -10 -47 -17 -75 -19 -69 -21 -104 -21 -305
1 -189 9 -241 68 -415 111 -334 362 -623 676 -780 119 -60 288 -116 391 -130
136 -19 239 -24 328 -15 182 18 224 27 363 76 320 113 582 337 746 637 46 84
108 234 118 288 3 12 9 37 16 56 6 18 12 48 14 66 1 17 9 80 16 139 10 87 10
128 0 217 -17 147 -20 171 -32 207 -5 17 -11 41 -14 53 -8 43 -66 190 -102
258 -206 394 -558 651 -998 729 -45 8 -349 17 -355 11z m95 -147 c26 -58 56
-113 67 -122 16 -15 40 -18 136 -17 74 0 134 -5 164 -14 26 -8 49 -13 51 -10
3 2 36 -10 73 -27 57 -27 66 -33 49 -40 -24 -9 -71 -3 -140 17 -73 21 -244 25
-345 7 -134 -23 -140 -24 -223 -31 -59 -4 -81 -3 -87 7 -6 10 -15 10 -46 -1
-26 -9 -83 -12 -174 -10 -127 2 -137 1 -155 -19 -12 -13 -19 -36 -20 -61 0
-43 1 -43 -123 -89 -18 -7 -31 -14 -29 -16 2 -2 28 5 58 16 29 11 62 20 71 20
26 0 23 -45 -4 -64 l-22 -16 24 0 25 0 0 -180 c0 -99 -1 -180 -2 -180 -2 0
-14 21 -27 48 -32 60 -32 53 -1 -23 18 -43 25 -79 25 -127 0 -71 -4 -79 -26
-50 -13 16 -14 16 -7 -3 3 -11 9 -24 13 -30 16 -23 27 -95 26 -158 l-2 -68
-46 -23 c-26 -13 -49 -21 -52 -18 -3 2 -11 0 -18 -5 -7 -6 -25 -13 -40 -17
-16 -3 -28 -11 -28 -16 0 -5 -8 -7 -17 -3 -14 5 -15 3 -6 -7 9 -10 18 -9 44 4
18 9 37 16 44 16 7 0 25 6 41 14 16 8 44 17 63 21 31 7 33 5 25 -11 -4 -11
-10 -55 -12 -99 -3 -70 -1 -84 18 -108 19 -24 27 -27 68 -23 26 2 60 9 75 15
23 9 29 8 34 -5 5 -15 7 -15 15 0 14 24 64 20 83 -6 15 -23 15 -23 9 9 -6 31
-6 32 22 24 31 -8 41 -31 43 -105 0 -23 10 -54 23 -72 19 -27 32 -34 78 -42
30 -5 75 -7 100 -4 25 2 43 2 40 -1 -3 -3 -45 -21 -94 -41 -69 -28 -92 -33
-99 -23 -6 8 -7 6 -3 -6 5 -16 2 -18 -22 -13 -59 13 -72 15 -72 8 0 -10 -244
-7 -261 3 -8 5 -11 5 -7 0 5 -5 -1 -14 -12 -22 -21 -15 -26 -48 -11 -72 6 -9
6 -22 0 -34 -8 -13 -6 -24 4 -40 8 -12 16 -39 19 -60 3 -31 1 -37 -11 -32 -9
3 -12 3 -9 -1 4 -4 3 -15 -2 -25 -7 -12 -7 -20 0 -24 6 -4 8 -15 5 -26 -5 -13
-2 -19 10 -19 11 0 14 -7 10 -27 -3 -16 -2 -22 1 -15 3 6 12 12 20 12 10 0 14
13 14 45 0 42 -11 58 -25 35 -9 -15 -25 -12 -25 5 0 12 13 15 55 15 45 0 55
-3 55 -17 0 -13 -3 -14 -12 -5 -21 21 -28 13 -28 -33 0 -25 5 -45 10 -45 26 0
6 -19 -22 -22 -27 -3 -30 -6 -15 -12 22 -10 69 12 60 28 -4 6 6 1 21 -12 30
-23 98 -30 125 -13 9 6 22 6 34 -1 14 -7 27 -7 43 1 19 8 24 8 24 -4 0 -16 14
-18 45 -6 26 11 44 -4 38 -32 -2 -15 1 -12 10 8 l14 30 109 1 c60 1 116 2 124
3 8 0 33 -2 56 -5 29 -4 45 -1 56 10 9 8 19 12 23 8 4 -4 5 -1 3 7 -2 7 3 16
11 19 8 3 11 0 7 -7 -4 -7 6 -18 24 -29 25 -13 43 -40 82 -122 89 -186 93
-199 70 -198 -9 1 -33 -3 -52 -9 -94 -30 -366 -47 -485 -31 -138 19 -139 20
-163 68 -6 14 -11 18 -11 10 3 -43 -1 -51 -20 -40 -11 5 -29 10 -41 10 -14 0
-20 5 -17 12 3 9 -8 14 -31 16 -20 1 -46 9 -59 17 -12 8 -31 15 -42 15 -11 0
-21 3 -23 8 -2 4 -37 25 -78 46 -84 44 -224 147 -233 170 -4 9 -13 16 -21 16
-8 0 -36 25 -63 56 -26 30 -63 72 -80 92 -18 20 -46 62 -63 92 -17 30 -40 66
-51 80 -11 14 -21 39 -23 55 -2 17 -4 33 -5 38 0 4 -7 7 -14 7 -17 0 -47 62
-47 97 0 14 -14 62 -32 106 -23 59 -29 82 -19 85 9 3 8 7 -3 16 -16 12 -24 65
-32 222 -5 98 -4 103 18 119 14 11 16 15 6 12 -10 -4 -20 -2 -23 3 -4 6 -2 10
3 10 6 0 13 7 16 16 3 8 2 12 -3 9 -5 -3 -12 -1 -15 4 -4 5 -3 12 2 15 4 2 9
24 10 48 2 24 14 82 27 130 14 47 26 96 28 107 6 36 13 32 37 -19 13 -28 27
-50 32 -50 5 0 7 -3 5 -7 -7 -11 11 -53 22 -53 10 0 3 38 -9 55 -4 6 -13 27
-20 48 -7 22 -16 34 -22 31 -6 -4 -8 -2 -4 4 3 6 1 22 -5 36 -17 36 1 72 43
90 20 9 26 15 16 15 -39 2 -3 69 50 93 l37 16 -32 -5 c-39 -7 -42 5 -8 37 14
13 25 29 25 35 0 6 13 24 29 39 16 16 32 40 36 55 l7 26 25 -30 c16 -20 21
-23 14 -8 -13 25 0 67 22 76 9 3 22 -3 32 -16 13 -18 15 -18 11 -4 -18 59 -18
64 11 82 15 10 51 37 78 60 59 48 138 101 215 142 58 30 160 77 172 77 3 1 10
4 14 9 20 20 21 17 117 -195 14 -31 31 -59 38 -64 7 -4 10 -3 7 2 -26 46 -60
133 -60 151 0 12 -4 20 -9 17 -5 -3 -9 0 -9 5 0 22 -1 27 -16 49 -16 25 -15
36 1 24 15 -11 57 -93 51 -99 -3 -3 6 -21 19 -41 13 -19 22 -39 19 -44 -3 -4
0 -8 5 -8 6 0 11 -7 11 -15 0 -8 5 -15 10 -15 13 0 17 -10 -45 128 -59 132
-63 147 -40 138 9 -3 45 1 82 10 36 8 71 13 77 11 7 -3 25 1 41 8 39 17 43 12
100 -115z m125 115 c69 -4 141 -6 160 -5 53 2 29 -12 -118 -68 l-133 -51 -24
56 c-25 55 -32 88 -17 79 4 -2 64 -7 132 -11z m266 -34 c5 -5 34 -16 64 -26
30 -10 78 -29 105 -42 28 -14 70 -35 95 -47 43 -20 154 -87 176 -104 5 -5 20
-15 32 -21 12 -6 29 -26 39 -44 33 -63 236 -513 251 -557 19 -55 59 -99 134
-152 56 -39 78 -75 54 -84 -13 -5 -85 32 -98 51 -4 5 -8 6 -8 1 0 -16 -152
139 -249 254 -53 63 -108 128 -121 144 -43 50 -184 186 -193 186 -4 0 -5 5 -2
10 3 6 2 10 -3 10 -10 0 -22 46 -14 54 9 10 97 -58 162 -124 72 -74 116 -122
175 -195 22 -27 54 -64 72 -82 17 -18 29 -33 26 -33 -3 0 6 -9 20 -20 14 -11
28 -20 31 -20 10 0 -232 286 -300 355 -121 123 -264 214 -404 256 -61 19 -100
23 -212 23 l-136 1 -20 47 -20 47 162 60 c180 67 169 64 182 52z m-7 -312 c41
-13 26 -14 -187 -14 -127 0 -230 1 -228 2 1 2 29 9 62 17 74 19 289 15 353 -5z
m735 -203 c68 -99 139 -219 124 -210 -7 4 -6 -1 4 -12 17 -20 49 -89 52 -114
1 -8 5 -22 9 -30 26 -62 43 -120 35 -120 -15 0 -90 55 -124 92 -18 18 -39 49
-47 68 -9 19 -65 146 -126 283 -61 136 -111 250 -111 254 0 14 137 -143 184
-211z m-504 -366 c0 -291 -3 -530 -6 -530 -3 0 -96 -18 -207 -39 -188 -37
-335 -62 -449 -76 l-48 -6 0 84 c0 92 -11 113 -75 137 -58 23 -244 11 -417
-26 l-28 -6 0 495 0 496 615 1 615 0 0 -530z m77 401 c40 -32 41 -37 6 -44
-16 -3 -35 -8 -43 -11 -12 -5 -15 4 -16 43 0 54 0 54 53 12z m95 -89 c63 -66
260 -303 256 -307 -5 -5 -380 -145 -390 -145 -4 0 -7 93 -7 208 1 114 -1 217
-5 228 -5 18 1 24 41 42 27 11 51 21 54 21 3 1 26 -20 51 -47z m323 -373 c59
-60 151 -128 216 -159 46 -23 47 -23 48 -74 0 -28 2 -80 4 -116 1 -36 -1 -78
-4 -95 -4 -16 -10 -59 -13 -95 -2 -36 -15 -101 -26 -145 -12 -44 -25 -96 -28
-115 l-7 -34 -34 74 c-19 41 -47 102 -62 135 -88 196 -102 221 -137 254 -91
87 -218 109 -350 63 -34 -12 -66 -22 -70 -22 -4 0 -5 21 -2 48 3 26 3 75 0
109 -6 71 -14 63 115 112 44 17 125 48 180 70 55 21 105 39 110 40 6 1 33 -22
60 -50z m-287 -311 c-2 -6 -15 -12 -29 -14 -42 -4 -83 -15 -96 -26 -8 -6 -16
-9 -19 -6 -11 12 54 41 93 42 24 1 43 4 43 9 0 4 3 7 6 7 3 0 4 -5 2 -12z
m126 -45 c17 -8 46 -26 64 -40 24 -18 32 -20 32 -9 0 8 -8 20 -17 25 -24 14
-10 14 21 0 13 -6 32 -28 43 -48 10 -20 23 -39 28 -43 6 -4 7 -8 2 -8 -4 0 2
-19 14 -42 12 -24 21 -44 20 -46 -1 -1 9 -24 23 -50 24 -46 70 -146 86 -188 5
-11 5 -26 1 -32 -6 -11 -91 171 -91 196 0 7 -4 11 -9 8 -5 -3 -12 6 -15 22 -7
26 -30 82 -48 112 -5 8 -11 23 -14 33 -4 9 -10 17 -15 17 -5 0 -9 8 -9 18 0
10 -3 13 -8 6 -4 -6 -34 -20 -67 -32 -33 -11 -120 -43 -193 -71 -72 -28 -138
-51 -145 -51 -9 0 -12 25 -11 90 0 49 3 92 6 95 3 3 43 19 89 35 92 33 153 34
213 3z m-1111 -54 c30 -13 42 -36 28 -53 -5 -6 -27 -20 -48 -31 -52 -26 -73
-45 -73 -65 0 -15 -13 -19 -77 -24 -66 -6 -175 -23 -260 -42 -23 -4 -23 -3
-23 95 l0 98 43 8 c204 35 352 41 410 14z m1255 -104 c11 -27 34 -79 50 -115
117 -253 125 -275 112 -300 -10 -19 -27 -26 -295 -126 -37 -14 -44 -20 -28
-22 12 -2 33 4 47 13 14 9 27 16 30 16 3 0 11 2 18 4 7 3 38 13 68 24 30 10
63 22 73 26 9 4 17 3 17 -2 0 -14 -203 -100 -222 -95 -5 1 -8 -2 -8 -7 0 -5
-16 -12 -35 -15 -19 -4 -37 -11 -40 -16 -7 -11 18 -14 28 -4 3 3 43 20 89 36
46 17 101 37 123 45 100 38 100 40 7 -80 -47 -62 -117 -143 -154 -181 l-68
-69 -19 44 c-58 135 -79 174 -86 157 -4 -10 9 -52 34 -107 23 -50 41 -97 41
-105 0 -23 -274 -196 -310 -196 -6 0 -10 6 -10 14 0 8 -5 18 -11 22 -8 4 -9 0
-4 -15 5 -17 2 -21 -14 -21 -12 0 -21 -6 -21 -13 0 -8 -11 -19 -25 -25 -22
-10 -26 -9 -40 19 -39 75 -125 276 -125 291 0 23 13 23 35 -2 14 -15 27 -19
66 -15 l49 4 -5 -57 c-4 -50 -3 -52 4 -14 11 60 34 74 42 24 5 -28 7 -31 8
-11 1 34 26 54 61 51 38 -4 67 34 45 58 -14 15 -13 19 3 33 10 10 24 17 30 17
7 0 12 5 12 10 0 6 -4 10 -10 10 -21 0 -9 21 18 31 88 36 94 49 7 18 -48 -17
-63 -18 -86 -8 -16 6 -40 9 -54 7 -14 -3 -25 -1 -25 3 0 5 5 9 10 9 14 0 12
74 -2 88 -9 9 0 12 40 12 40 0 52 -4 52 -15 0 -12 -4 -13 -19 -5 -30 15 -41
12 -41 -11 0 -18 4 -20 25 -15 18 5 25 2 25 -7 0 -10 -8 -13 -25 -9 -20 3 -25
0 -25 -17 0 -22 33 -30 45 -11 10 16 28 12 21 -5 -3 -8 -1 -15 3 -15 5 0 9 25
8 55 -1 30 -4 55 -8 55 -8 0 -5 32 5 48 4 7 2 12 -6 13 -9 0 -9 2 -1 5 8 4 9
13 1 34 -8 25 -14 29 -39 26 -16 -2 -44 0 -62 3 -25 5 -35 3 -48 -12 -13 -17
-17 -17 -30 -6 -10 10 -48 14 -144 14 -71 0 -136 -4 -142 -8 -19 -12 -77 92
-61 108 2 3 29 7 59 10 30 4 92 12 139 20 47 8 101 17 120 19 19 3 63 12 98
21 35 8 67 13 71 11 4 -3 44 -88 90 -190 46 -101 89 -187 96 -190 17 -6 8 26
-27 104 -138 306 -132 289 -113 310 12 13 16 30 13 54 -3 32 -1 36 32 50 34
16 155 62 295 113 39 14 74 29 80 34 12 12 20 2 43 -56z m-1220 -20 c-1 -36
-5 -68 -9 -71 -14 -8 -79 7 -94 23 -24 24 -17 38 29 61 24 12 49 29 56 37 7 8
14 15 16 15 1 0 2 -29 2 -65z m742 -75 l0 -100 -27 0 c-27 0 -132 -18 -260
-44 l-63 -13 0 98 0 97 28 6 c15 2 72 12 127 22 55 9 114 20 130 24 67 18 65
20 65 -90z m-366 -57 l-1 -98 -89 -19 c-62 -13 -131 -19 -230 -20 -183 -1
-184 -1 -184 126 0 48 3 88 8 88 4 0 16 -7 26 -15 30 -22 178 -18 331 9 72 13
132 24 135 25 3 0 5 -43 4 -96z m-168 -208 c7 -19 14 -38 14 -44 0 -5 -36 -7
-80 -6 -44 2 -80 0 -80 -3 0 -4 11 -15 24 -24 23 -17 24 -17 31 5 7 20 8 18
14 -13 l7 -35 14 28 c17 35 23 34 38 -5 14 -38 8 -49 -12 -22 -14 18 -15 18
-21 1 -9 -22 -35 -18 -57 8 -17 20 -17 20 -18 -2 0 -13 -4 -23 -8 -23 -5 0 -7
13 -4 28 5 39 -19 56 -76 54 l-47 -2 45 21 c53 25 169 67 188 68 7 1 20 -15
28 -34z m528 -88 c-3 -9 -10 -17 -15 -17 -5 0 -9 -4 -9 -10 0 -5 7 -7 15 -4 8
4 15 1 15 -5 0 -6 -11 -11 -25 -11 -22 0 -25 4 -25 34 0 25 5 36 18 39 23 5
34 -6 26 -26z m-1204 -7 c0 -16 5 -30 10 -30 6 0 10 14 10 32 l0 31 24 -22
c24 -23 25 -23 19 -2 -3 12 -1 21 6 21 6 0 11 -16 11 -37 l0 -36 -26 24 -27
24 6 -22 c4 -20 1 -23 -24 -23 -26 0 -29 3 -29 35 0 19 5 35 10 35 6 0 10 -13
10 -30z m107 24 c-3 -4 3 -14 15 -24 23 -19 17 -40 -12 -40 -14 0 -18 8 -18
35 0 19 5 35 11 35 6 0 8 -3 4 -6z m93 -4 c0 -6 -4 -8 -10 -5 -6 4 -10 -7 -10
-24 0 -17 -4 -31 -10 -31 -5 0 -10 13 -10 29 0 24 -3 28 -20 24 -11 -3 -20 -1
-20 4 0 5 18 10 40 11 24 2 40 -2 40 -8z m30 -25 c0 -19 -4 -35 -10 -35 -5 0
-10 16 -10 35 0 19 5 35 10 35 6 0 10 -16 10 -35z m90 10 c0 -34 28 -32 33 3
4 26 4 25 6 -5 1 -36 -10 -47 -39 -38 -12 4 -20 15 -20 29 0 13 -6 23 -15 23
-20 0 -19 -21 1 -52 15 -23 15 -25 0 -25 -10 0 -14 5 -11 10 3 6 0 10 -8 10
-10 0 -12 9 -9 31 3 22 1 30 -7 25 -6 -4 -11 -2 -11 3 0 6 18 11 40 11 36 0
40 -2 40 -25z m134 0 c-4 -15 0 -24 11 -29 14 -5 17 -1 13 24 -5 33 3 38 22
14 11 -13 10 -19 -7 -36 -26 -25 -49 -18 -64 19 -7 17 -13 23 -16 15 -7 -18 6
-64 16 -57 10 6 23 -20 14 -29 -11 -11 -53 45 -53 70 0 14 -4 22 -10 19 -5 -3
-10 -1 -10 4 0 7 19 10 45 9 41 -1 44 -3 39 -23z m248 13 c-19 -19 -14 -38 11
-38 18 0 23 -5 22 -24 0 -30 -15 -47 -15 -18 0 13 -6 22 -15 22 -21 0 -35 31
-24 52 5 10 15 18 21 18 9 0 9 -3 0 -12z m68 -23 c0 -19 -4 -35 -10 -35 -5 0
-10 16 -10 35 0 19 5 35 10 35 6 0 10 -16 10 -35z m32 10 c-3 -19 0 -25 13
-25 13 0 16 6 11 25 -8 30 10 34 19 4 9 -28 -16 -53 -44 -44 -28 9 -29 65 -1
65 4 0 5 -11 2 -25z m86 3 l24 -23 -6 23 c-5 13 -3 22 3 22 6 0 11 -15 11 -32
l1 -33 18 33 c19 36 31 31 45 -15 9 -27 -9 -31 -19 -5 -6 16 -7 16 -19 0 -17
-23 -25 -23 -54 5 l-25 22 6 -22 c3 -14 1 -23 -6 -23 -7 0 -12 15 -12 35 0 19
2 35 4 35 3 0 16 -10 29 -22z m132 -8 c0 -28 2 -30 21 -19 17 9 20 8 17 -3 -3
-7 -17 -14 -31 -16 -25 -3 -27 0 -27 32 0 20 5 36 10 36 6 0 10 -14 10 -30z
m127 14 c9 -24 -10 -49 -41 -52 -24 -3 -26 0 -26 32 0 33 2 36 30 36 19 0 33
-6 37 -16z m-882 -74 c3 -6 -3 -22 -14 -36 -14 -18 -21 -21 -21 -12 0 9 -7 22
-16 29 -14 12 -14 14 3 20 26 11 41 10 48 -1z m-175 -34 c0 -10 -7 -12 -21 -9
-21 6 -22 3 -17 -43 4 -47 3 -49 -19 -48 -26 1 -45 14 -20 14 13 0 17 9 17 41
0 39 -1 41 -25 35 -18 -5 -25 -2 -25 9 0 12 12 15 55 15 41 0 55 -4 55 -14z
m94 8 c19 -7 21 -40 4 -47 -9 -3 -5 -13 11 -31 21 -22 22 -26 7 -26 -9 0 -28
12 -42 28 l-25 27 4 -26 c3 -21 -2 -28 -25 -38 -16 -7 -32 -10 -35 -7 -4 3 1
6 11 6 9 0 14 5 11 10 -3 6 -1 10 4 10 16 0 14 87 -1 93 -7 3 4 6 24 6 20 1
43 -2 52 -5z m137 -39 c11 -24 24 -47 29 -50 19 -12 10 -22 -14 -18 -17 4 -23
10 -19 20 4 11 -1 14 -23 11 -20 -2 -28 -8 -26 -20 2 -12 -3 -15 -18 -11 -19
5 -19 6 -2 32 10 14 23 38 30 54 6 15 14 27 17 27 4 0 15 -20 26 -45z m114 8
l36 -38 -3 38 c-3 32 -1 37 16 37 16 0 17 -3 8 -12 -7 -7 -12 -32 -12 -57 l0
-45 -40 39 -40 39 0 -26 c0 -15 5 -30 10 -33 17 -11 11 -25 -10 -22 -22 4 -40
17 -22 17 20 0 15 77 -5 89 -16 9 -16 10 4 11 13 0 38 -16 58 -37z m165 22 c0
-18 -12 -19 -27 -4 -11 11 -33 5 -33 -9 0 -4 14 -13 30 -20 52 -23 27 -80 -28
-65 -22 5 -31 33 -12 33 6 0 10 -4 10 -10 0 -5 9 -10 20 -10 29 0 24 18 -10
38 -49 28 -40 62 17 62 23 0 33 -5 33 -15z m109 1 c17 -20 3 -46 -25 -46 -27
0 -32 -23 -10 -45 9 -9 17 -10 24 -3 6 6 12 6 17 -2 4 -7 -1 -14 -14 -17 -11
-3 -18 -10 -14 -16 3 -6 1 -7 -6 -3 -6 4 -9 11 -6 16 7 11 -31 23 -45 15 -5
-3 -10 -1 -10 4 0 6 5 11 10 11 15 0 12 87 -2 93 -7 3 6 6 28 6 24 1 46 -5 53
-13z m137 -11 c19 -29 11 -60 -21 -81 -40 -26 -21 -44 46 -44 46 0 59 -3 59
-15 0 -17 -16 -20 -25 -5 -4 6 -11 8 -16 5 -12 -8 -12 -85 1 -85 6 0 10 -4 10
-8 0 -5 -13 -9 -30 -10 -16 0 -30 4 -30 9 0 5 5 9 10 9 6 0 10 20 10 45 0 42
-11 58 -25 35 -9 -15 -25 -12 -25 5 0 9 -18 33 -40 55 -45 44 -49 61 -20 90
28 28 76 26 96 -5z m118 1 c8 -14 8 -20 -1 -23 -20 -7 -15 -31 7 -43 11 -6 20
-15 20 -20 0 -15 -32 1 -58 29 l-23 26 4 -27 c3 -21 -1 -27 -20 -31 -12 -2
-23 0 -23 4 0 5 5 9 10 9 14 0 12 74 -2 89 -11 10 -4 12 31 9 30 -2 47 -9 55
-22z m136 9 c0 -12 -7 -14 -26 -9 -25 6 -26 5 -19 -27 12 -60 17 -71 30 -65 8
3 12 -2 11 -11 -3 -22 -34 -26 -32 -4 1 10 -6 16 -20 15 -19 0 -20 4 -16 49 5
47 4 50 -17 44 -14 -3 -21 -1 -21 9 0 10 14 14 55 14 43 0 55 -3 55 -15z
m-850 -125 c0 -5 20 -10 44 -10 54 0 77 -21 52 -49 -15 -16 -15 -19 1 -33 10
-8 25 -18 33 -21 12 -4 11 -6 -4 -12 -14 -6 -25 0 -47 26 -28 35 -53 34 -31
-1 17 -27 15 -30 -13 -30 -26 0 -33 14 -14 26 18 11 3 73 -23 94 -13 11 -17
19 -10 20 6 0 12 -4 12 -10z m357 -10 c40 0 53 -4 53 -15 0 -17 -16 -20 -25
-5 -12 19 -45 11 -45 -11 0 -17 5 -20 25 -17 16 3 25 1 25 -7 0 -8 -9 -10 -25
-7 -20 3 -25 0 -25 -17 0 -24 37 -30 59 -8 10 10 12 8 9 -8 -3 -17 -12 -20
-56 -21 -28 0 -52 3 -52 8 0 4 5 8 10 8 6 0 10 20 10 44 0 45 -15 62 -50 57
-13 -2 -13 -1 0 8 9 7 18 7 24 1 6 -6 34 -10 63 -10z m-391 -22 c-3 -13 -6
-32 -7 -43 0 -11 -3 -14 -6 -7 -8 20 -43 14 -43 -8 0 -23 38 -28 58 -8 13 13
16 0 4 -19 -9 -14 -102 -15 -102 -2 0 5 5 9 10 9 14 0 12 74 -2 88 -9 9 0 12
41 12 50 0 53 -1 47 -22z m284 7 c10 -13 10 -19 -4 -34 -16 -18 -16 -20 8 -39
29 -22 33 -32 12 -32 -8 0 -26 14 -39 30 -30 35 -37 37 -37 10 0 -11 5 -20 10
-20 6 0 10 -4 10 -8 0 -5 -13 -9 -30 -10 -16 0 -30 4 -30 9 0 5 5 9 10 9 15 0
12 87 -2 93 -7 3 8 6 33 6 30 1 51 -4 59 -14z m280 -5 c0 -23 -15 -27 -24 -5
-7 18 -36 20 -36 2 0 -6 14 -18 30 -25 54 -24 29 -80 -30 -67 -21 5 -30 13
-30 26 0 23 15 25 24 4 6 -16 46 -21 46 -5 0 5 -9 14 -19 20 -11 5 -27 17 -36
26 -22 23 -2 44 41 44 27 0 34 -4 34 -20z m267 4 c3 -9 1 -25 -5 -35 -10 -15
-7 -21 13 -37 29 -23 31 -32 8 -32 -9 0 -29 15 -44 33 -26 30 -28 31 -29 10 0
-13 5 -23 10 -23 6 0 10 -4 10 -10 0 -5 -13 -10 -30 -10 -16 0 -30 5 -30 10 0
6 5 10 10 10 15 0 12 87 -2 93 -7 3 9 6 35 6 35 1 49 -3 54 -15z m153 -1 c0
-13 -3 -14 -12 -5 -20 20 -48 15 -48 -9 0 -18 4 -20 25 -15 18 5 25 2 25 -7 0
-10 -8 -13 -25 -9 -20 3 -25 0 -25 -17 0 -15 6 -21 23 -21 13 0 28 5 35 12 13
13 16 0 4 -19 -9 -14 -102 -14 -102 -1 0 4 5 8 10 8 15 0 12 87 -2 93 -7 3 11
6 40 6 43 1 52 -2 52 -16z"/>
<path d="M1400 2566 c-94 -24 -153 -50 -90 -40 19 3 54 12 78 19 23 8 60 18
82 21 42 7 61 19 32 21 -9 0 -55 -9 -102 -21z"/>
<path d="M330 1786 c0 -9 5 -16 10 -16 6 0 10 -9 10 -20 0 -12 7 -20 18 -20
11 0 13 3 6 8 -7 4 -14 18 -15 31 -4 27 -29 42 -29 17z"/>
<path d="M526 1365 c-11 -8 -29 -15 -40 -15 -10 0 -17 -3 -14 -6 11 -10 78 8
71 19 -4 6 0 8 10 4 10 -3 17 -2 17 3 0 14 -22 12 -44 -5z"/>
<path d="M965 1075 c-16 -8 -43 -19 -59 -25 -16 -6 -27 -13 -24 -15 4 -5 52 9
98 28 14 6 29 10 33 8 5 -1 6 3 2 9 -8 13 -14 12 -50 -5z"/>
<path d="M1070 1940 l0 -170 28 0 27 0 0 170 0 170 -27 0 -28 0 0 -170z"/>
<path d="M1180 1940 l0 -170 26 0 26 0 -3 119 -4 118 57 -118 c53 -110 59
-119 85 -119 l28 0 0 170 0 170 -29 0 -28 0 4 -110 c2 -60 1 -110 -2 -110 -3
0 -28 50 -57 110 -46 98 -55 110 -77 110 l-26 0 0 -170z"/>
<path d="M1430 2079 c0 -31 0 -31 44 -25 l44 7 -2 -146 -1 -145 27 0 28 0 0
144 0 144 40 -4 c39 -3 40 -3 40 26 l0 30 -110 0 -110 0 0 -31z"/>
<path d="M1670 2081 c0 -28 1 -29 40 -24 l40 6 0 -147 0 -146 25 0 25 0 0 146
0 147 40 -7 c39 -6 40 -6 40 24 l0 30 -105 0 -105 0 0 -29z"/>
<path d="M2313 761 c-50 -20 -67 -34 -27 -22 46 14 84 30 84 36 0 7 -10 5 -57
-14z"/>
<path d="M1664 1206 c-13 -14 -7 -36 11 -36 18 0 25 23 11 36 -8 8 -15 8 -22
0z"/>
<path d="M1603 1195 c-12 -13 -5 -29 14 -32 16 -3 23 20 9 33 -9 8 -15 7 -23
-1z"/>
<path d="M1544 1186 c-13 -14 -7 -36 11 -36 18 0 25 23 11 36 -8 8 -15 8 -22
0z"/>
<path d="M1484 1176 c-13 -14 -7 -36 11 -36 18 0 25 23 11 36 -8 8 -15 8 -22
0z"/>
<path d="M1243 1173 c-15 -5 -5 -33 12 -33 7 0 15 6 18 14 6 15 -10 26 -30 19z"/>
<path d="M1364 1166 c-13 -14 -5 -40 14 -43 13 -3 16 25 4 43 -5 9 -10 9 -18
0z"/>
<path d="M1422 1168 c-13 -13 -4 -38 13 -38 18 0 25 23 10 37 -9 8 -16 8 -23
1z"/>
<path d="M1303 1163 c-15 -5 -5 -33 12 -33 7 0 15 6 18 14 6 15 -10 26 -30 19z"/>
<path d="M1974 896 c-4 -10 -2 -22 4 -28 8 -8 13 -7 18 6 4 10 2 22 -4 28 -8
8 -13 7 -18 -6z"/>
<path d="M1017 793 c-4 -3 -7 -12 -7 -20 0 -15 26 -18 34 -4 7 11 -18 33 -27
24z"/>
<path d="M1640 786 c-15 -19 -9 -56 12 -69 34 -22 66 41 36 71 -16 16 -33 15
-48 -2z"/>
<path d="M1780 781 c0 -12 6 -21 16 -21 9 0 14 7 12 17 -5 25 -28 28 -28 4z"/>
<path d="M1167 644 c-14 -15 -6 -34 14 -34 14 0 19 5 17 17 -3 18 -20 27 -31
17z"/>
<path d="M1030 630 c0 -23 22 -27 39 -7 13 16 5 27 -21 27 -11 0 -18 -7 -18
-20z"/>
<path d="M1313 634 c-7 -19 2 -28 22 -21 19 8 19 23 0 31 -9 3 -18 -1 -22 -10z"/>
<path d="M1860 630 c0 -11 6 -20 14 -20 21 0 31 21 15 31 -22 14 -29 11 -29
-11z"/>
</g>
</svg>
